<svg width="1366" height="320" viewBox="0 0 1366 320" fill="none" xmlns="http://www.w3.org/2000/svg">
<g clip-path="url(#clip0_3133_6420)">
<rect y="-26.9297" width="65.0476" height="65.0476" stroke="white" stroke-opacity="0.02" stroke-width="1.30095"/>
<rect x="65.0475" y="-26.9297" width="65.0476" height="65.0476" stroke="white" stroke-opacity="0.02" stroke-width="1.30095"/>
<rect x="130.095" y="-26.9297" width="65.0476" height="65.0476" stroke="white" stroke-opacity="0.02" stroke-width="1.30095"/>
<rect x="195.143" y="-26.9297" width="65.0476" height="65.0476" fill="white" fill-opacity="0.01" stroke="white" stroke-opacity="0.02" stroke-width="1.30095"/>
<rect x="260.191" y="-26.9297" width="65.0476" height="65.0476" stroke="white" stroke-opacity="0.02" stroke-width="1.30095"/>
<rect x="325.238" y="-26.9297" width="65.0476" height="65.0476" stroke="white" stroke-opacity="0.02" stroke-width="1.30095"/>
<rect x="390.286" y="-26.9297" width="65.0476" height="65.0476" stroke="white" stroke-opacity="0.02" stroke-width="1.30095"/>
<rect x="455.333" y="-26.9297" width="65.0476" height="65.0476" stroke="white" stroke-opacity="0.02" stroke-width="1.30095"/>
<rect x="520.381" y="-26.9297" width="65.0476" height="65.0476" stroke="white" stroke-opacity="0.02" stroke-width="1.30095"/>
<rect x="585.428" y="-26.9297" width="65.0476" height="65.0476" stroke="white" stroke-opacity="0.02" stroke-width="1.30095"/>
<rect x="650.476" y="-26.9297" width="65.0476" height="65.0476" stroke="white" stroke-opacity="0.02" stroke-width="1.30095"/>
<rect x="715.524" y="-26.9297" width="65.0476" height="65.0476" stroke="white" stroke-opacity="0.02" stroke-width="1.30095"/>
<rect x="780.571" y="-26.9297" width="65.0476" height="65.0476" fill="white" fill-opacity="0.01" stroke="white" stroke-opacity="0.02" stroke-width="1.30095"/>
<rect x="845.619" y="-26.9297" width="65.0476" height="65.0476" stroke="white" stroke-opacity="0.02" stroke-width="1.30095"/>
<rect x="910.667" y="-26.9297" width="65.0476" height="65.0476" stroke="white" stroke-opacity="0.02" stroke-width="1.30095"/>
<rect x="975.714" y="-26.9297" width="65.0476" height="65.0476" stroke="white" stroke-opacity="0.02" stroke-width="1.30095"/>
<rect x="1040.76" y="-26.9297" width="65.0476" height="65.0476" stroke="white" stroke-opacity="0.02" stroke-width="1.30095"/>
<rect x="1105.81" y="-26.9297" width="65.0476" height="65.0476" stroke="white" stroke-opacity="0.02" stroke-width="1.30095"/>
<rect x="1170.86" y="-26.9297" width="65.0476" height="65.0476" stroke="white" stroke-opacity="0.02" stroke-width="1.30095"/>
<rect x="1235.91" y="-26.9297" width="65.0476" height="65.0476" stroke="white" stroke-opacity="0.02" stroke-width="1.30095"/>
<rect x="1300.95" y="-26.9297" width="65.0476" height="65.0476" stroke="white" stroke-opacity="0.02" stroke-width="1.30095"/>
<rect y="38.1177" width="65.0476" height="65.0476" stroke="white" stroke-opacity="0.02" stroke-width="1.30095"/>
<rect x="65.0475" y="38.1177" width="65.0476" height="65.0476" stroke="white" stroke-opacity="0.02" stroke-width="1.30095"/>
<rect x="130.095" y="38.1177" width="65.0476" height="65.0476" stroke="white" stroke-opacity="0.02" stroke-width="1.30095"/>
<rect x="195.143" y="38.1177" width="65.0476" height="65.0476" stroke="white" stroke-opacity="0.02" stroke-width="1.30095"/>
<rect x="260.191" y="38.1177" width="65.0476" height="65.0476" stroke="white" stroke-opacity="0.02" stroke-width="1.30095"/>
<rect x="325.238" y="38.1179" width="65.0476" height="65.0476" stroke="white" stroke-opacity="0.02" stroke-width="1.30095"/>
<rect x="390.286" y="38.1179" width="65.0476" height="65.0476" stroke="white" stroke-opacity="0.02" stroke-width="1.30095"/>
<rect x="455.333" y="38.1179" width="65.0476" height="65.0476" stroke="white" stroke-opacity="0.02" stroke-width="1.30095"/>
<rect x="520.381" y="38.1177" width="65.0476" height="65.0476" stroke="white" stroke-opacity="0.02" stroke-width="1.30095"/>
<rect x="585.428" y="38.1177" width="65.0476" height="65.0476" stroke="white" stroke-opacity="0.02" stroke-width="1.30095"/>
<rect x="650.476" y="38.1177" width="65.0476" height="65.0476" stroke="white" stroke-opacity="0.02" stroke-width="1.30095"/>
<rect x="715.524" y="38.1177" width="65.0476" height="65.0476" stroke="white" stroke-opacity="0.02" stroke-width="1.30095"/>
<rect x="780.571" y="38.1177" width="65.0476" height="65.0476" stroke="white" stroke-opacity="0.02" stroke-width="1.30095"/>
<rect x="845.619" y="38.1177" width="65.0476" height="65.0476" stroke="white" stroke-opacity="0.02" stroke-width="1.30095"/>
<rect x="910.667" y="38.1177" width="65.0476" height="65.0476" stroke="white" stroke-opacity="0.02" stroke-width="1.30095"/>
<rect x="975.714" y="38.1179" width="65.0476" height="65.0476" stroke="white" stroke-opacity="0.02" stroke-width="1.30095"/>
<rect x="1040.76" y="38.1177" width="65.0476" height="65.0476" stroke="white" stroke-opacity="0.02" stroke-width="1.30095"/>
<rect x="1105.81" y="38.1177" width="65.0476" height="65.0476" stroke="white" stroke-opacity="0.02" stroke-width="1.30095"/>
<rect x="1170.86" y="38.1177" width="65.0476" height="65.0476" fill="white" fill-opacity="0.01" stroke="white" stroke-opacity="0.02" stroke-width="1.30095"/>
<rect x="1235.91" y="38.1179" width="65.0476" height="65.0476" stroke="white" stroke-opacity="0.02" stroke-width="1.30095"/>
<rect x="1300.95" y="38.1177" width="65.0476" height="65.0476" stroke="white" stroke-opacity="0.02" stroke-width="1.30095"/>
<rect y="103.166" width="65.0476" height="65.0476" stroke="white" stroke-opacity="0.02" stroke-width="1.30095"/>
<rect x="65.0475" y="103.166" width="65.0476" height="65.0476" stroke="white" stroke-opacity="0.02" stroke-width="1.30095"/>
<rect x="130.095" y="103.166" width="65.0476" height="65.0476" stroke="white" stroke-opacity="0.02" stroke-width="1.30095"/>
<rect x="195.143" y="103.166" width="65.0476" height="65.0476" stroke="white" stroke-opacity="0.02" stroke-width="1.30095"/>
<rect x="260.191" y="103.166" width="65.0476" height="65.0476" stroke="white" stroke-opacity="0.02" stroke-width="1.30095"/>
<rect x="325.238" y="103.166" width="65.0476" height="65.0476" stroke="white" stroke-opacity="0.02" stroke-width="1.30095"/>
<rect x="390.286" y="103.166" width="65.0476" height="65.0476" stroke="white" stroke-opacity="0.02" stroke-width="1.30095"/>
<rect x="455.333" y="103.166" width="65.0476" height="65.0476" stroke="white" stroke-opacity="0.02" stroke-width="1.30095"/>
<rect x="520.381" y="103.166" width="65.0476" height="65.0476" stroke="white" stroke-opacity="0.02" stroke-width="1.30095"/>
<rect x="585.428" y="103.166" width="65.0476" height="65.0476" stroke="white" stroke-opacity="0.02" stroke-width="1.30095"/>
<rect x="650.476" y="103.166" width="65.0476" height="65.0476" stroke="white" stroke-opacity="0.02" stroke-width="1.30095"/>
<rect x="715.524" y="103.166" width="65.0476" height="65.0476" stroke="white" stroke-opacity="0.02" stroke-width="1.30095"/>
<rect x="780.571" y="103.166" width="65.0476" height="65.0476" stroke="white" stroke-opacity="0.02" stroke-width="1.30095"/>
<rect x="845.619" y="103.166" width="65.0476" height="65.0476" stroke="white" stroke-opacity="0.02" stroke-width="1.30095"/>
<rect x="910.667" y="103.166" width="65.0476" height="65.0476" stroke="white" stroke-opacity="0.02" stroke-width="1.30095"/>
<rect x="975.714" y="103.166" width="65.0476" height="65.0476" stroke="white" stroke-opacity="0.02" stroke-width="1.30095"/>
<rect x="1040.76" y="103.166" width="65.0476" height="65.0476" stroke="white" stroke-opacity="0.02" stroke-width="1.30095"/>
<rect x="1105.81" y="103.166" width="65.0476" height="65.0476" stroke="white" stroke-opacity="0.02" stroke-width="1.30095"/>
<rect x="1170.86" y="103.166" width="65.0476" height="65.0476" stroke="white" stroke-opacity="0.02" stroke-width="1.30095"/>
<rect x="1235.91" y="103.166" width="65.0476" height="65.0476" stroke="white" stroke-opacity="0.02" stroke-width="1.30095"/>
<rect x="1300.95" y="103.166" width="65.0476" height="65.0476" stroke="white" stroke-opacity="0.02" stroke-width="1.30095"/>
<rect y="168.213" width="65.0476" height="65.0476" stroke="white" stroke-opacity="0.02" stroke-width="1.30095"/>
<rect x="65.0475" y="168.213" width="65.0476" height="65.0476" stroke="white" stroke-opacity="0.02" stroke-width="1.30095"/>
<rect x="130.095" y="168.213" width="65.0476" height="65.0476" stroke="white" stroke-opacity="0.02" stroke-width="1.30095"/>
<rect x="195.143" y="168.213" width="65.0476" height="65.0476" stroke="white" stroke-opacity="0.02" stroke-width="1.30095"/>
<rect x="260.191" y="168.213" width="65.0476" height="65.0476" stroke="white" stroke-opacity="0.02" stroke-width="1.30095"/>
<rect x="325.238" y="168.213" width="65.0476" height="65.0476" stroke="white" stroke-opacity="0.02" stroke-width="1.30095"/>
<rect x="390.286" y="168.213" width="65.0476" height="65.0476" stroke="white" stroke-opacity="0.02" stroke-width="1.30095"/>
<rect x="455.333" y="168.213" width="65.0476" height="65.0476" stroke="white" stroke-opacity="0.02" stroke-width="1.30095"/>
<rect x="520.381" y="168.213" width="65.0476" height="65.0476" fill="white" fill-opacity="0.01" stroke="white" stroke-opacity="0.02" stroke-width="1.30095"/>
<rect x="585.428" y="168.213" width="65.0476" height="65.0476" stroke="white" stroke-opacity="0.02" stroke-width="1.30095"/>
<rect x="650.476" y="168.213" width="65.0476" height="65.0476" stroke="white" stroke-opacity="0.02" stroke-width="1.30095"/>
<rect x="715.524" y="168.213" width="65.0476" height="65.0476" stroke="white" stroke-opacity="0.02" stroke-width="1.30095"/>
<rect x="780.571" y="168.213" width="65.0476" height="65.0476" stroke="white" stroke-opacity="0.02" stroke-width="1.30095"/>
<rect x="845.619" y="168.213" width="65.0476" height="65.0476" stroke="white" stroke-opacity="0.02" stroke-width="1.30095"/>
<rect x="910.667" y="168.213" width="65.0476" height="65.0476" stroke="white" stroke-opacity="0.02" stroke-width="1.30095"/>
<rect x="975.714" y="168.213" width="65.0476" height="65.0476" stroke="white" stroke-opacity="0.02" stroke-width="1.30095"/>
<rect x="1040.76" y="168.213" width="65.0476" height="65.0476" stroke="white" stroke-opacity="0.02" stroke-width="1.30095"/>
<rect x="1105.81" y="168.213" width="65.0476" height="65.0476" stroke="white" stroke-opacity="0.02" stroke-width="1.30095"/>
<rect x="1170.86" y="168.213" width="65.0476" height="65.0476" stroke="white" stroke-opacity="0.02" stroke-width="1.30095"/>
<rect x="1235.91" y="168.213" width="65.0476" height="65.0476" stroke="white" stroke-opacity="0.02" stroke-width="1.30095"/>
<rect x="1300.95" y="168.213" width="65.0476" height="65.0476" stroke="white" stroke-opacity="0.02" stroke-width="1.30095"/>
<rect y="233.26" width="65.0476" height="65.0476" stroke="white" stroke-opacity="0.02" stroke-width="1.30095"/>
<rect x="65.0475" y="233.26" width="65.0476" height="65.0476" stroke="white" stroke-opacity="0.02" stroke-width="1.30095"/>
<rect x="130.095" y="233.26" width="65.0476" height="65.0476" stroke="white" stroke-opacity="0.02" stroke-width="1.30095"/>
<rect x="195.143" y="233.26" width="65.0476" height="65.0476" stroke="white" stroke-opacity="0.02" stroke-width="1.30095"/>
<rect x="260.191" y="233.26" width="65.0476" height="65.0476" fill="white" fill-opacity="0.01" stroke="white" stroke-opacity="0.02" stroke-width="1.30095"/>
<rect x="325.238" y="233.26" width="65.0476" height="65.0476" stroke="white" stroke-opacity="0.02" stroke-width="1.30095"/>
<rect x="390.286" y="233.26" width="65.0476" height="65.0476" stroke="white" stroke-opacity="0.02" stroke-width="1.30095"/>
<rect x="455.333" y="233.26" width="65.0476" height="65.0476" stroke="white" stroke-opacity="0.02" stroke-width="1.30095"/>
<rect x="520.381" y="233.26" width="65.0476" height="65.0476" stroke="white" stroke-opacity="0.02" stroke-width="1.30095"/>
<rect x="585.428" y="233.26" width="65.0476" height="65.0476" stroke="white" stroke-opacity="0.02" stroke-width="1.30095"/>
<rect x="650.476" y="233.26" width="65.0476" height="65.0476" stroke="white" stroke-opacity="0.02" stroke-width="1.30095"/>
<rect x="715.524" y="233.26" width="65.0476" height="65.0476" stroke="white" stroke-opacity="0.02" stroke-width="1.30095"/>
<rect x="780.571" y="233.26" width="65.0476" height="65.0476" stroke="white" stroke-opacity="0.02" stroke-width="1.30095"/>
<rect x="845.619" y="233.26" width="65.0476" height="65.0476" stroke="white" stroke-opacity="0.02" stroke-width="1.30095"/>
<rect x="910.667" y="233.26" width="65.0476" height="65.0476" stroke="white" stroke-opacity="0.02" stroke-width="1.30095"/>
<rect x="975.714" y="233.26" width="65.0476" height="65.0476" stroke="white" stroke-opacity="0.02" stroke-width="1.30095"/>
<rect x="1040.76" y="233.26" width="65.0476" height="65.0476" stroke="white" stroke-opacity="0.02" stroke-width="1.30095"/>
<rect x="1105.81" y="233.26" width="65.0476" height="65.0476" stroke="white" stroke-opacity="0.02" stroke-width="1.30095"/>
<rect x="1170.86" y="233.26" width="65.0476" height="65.0476" stroke="white" stroke-opacity="0.02" stroke-width="1.30095"/>
<rect x="1235.91" y="233.26" width="65.0476" height="65.0476" stroke="white" stroke-opacity="0.02" stroke-width="1.30095"/>
<rect x="1300.95" y="233.26" width="65.0476" height="65.0476" stroke="white" stroke-opacity="0.02" stroke-width="1.30095"/>
<rect y="298.309" width="65.0476" height="65.0476" stroke="white" stroke-opacity="0.02" stroke-width="1.30095"/>
<rect x="65.0475" y="298.309" width="65.0476" height="65.0476" stroke="white" stroke-opacity="0.02" stroke-width="1.30095"/>
<rect x="130.095" y="298.309" width="65.0476" height="65.0476" stroke="white" stroke-opacity="0.02" stroke-width="1.30095"/>
<rect x="195.143" y="298.309" width="65.0476" height="65.0476" stroke="white" stroke-opacity="0.02" stroke-width="1.30095"/>
<rect x="260.191" y="298.309" width="65.0476" height="65.0476" stroke="white" stroke-opacity="0.02" stroke-width="1.30095"/>
<rect x="325.238" y="298.309" width="65.0476" height="65.0476" stroke="white" stroke-opacity="0.02" stroke-width="1.30095"/>
<rect x="390.286" y="298.309" width="65.0476" height="65.0476" stroke="white" stroke-opacity="0.02" stroke-width="1.30095"/>
<rect x="455.333" y="298.309" width="65.0476" height="65.0476" stroke="white" stroke-opacity="0.02" stroke-width="1.30095"/>
<rect x="520.381" y="298.309" width="65.0476" height="65.0476" stroke="white" stroke-opacity="0.02" stroke-width="1.30095"/>
<rect x="585.428" y="298.309" width="65.0476" height="65.0476" stroke="white" stroke-opacity="0.02" stroke-width="1.30095"/>
<rect x="650.476" y="298.309" width="65.0476" height="65.0476" stroke="white" stroke-opacity="0.02" stroke-width="1.30095"/>
<rect x="715.524" y="298.309" width="65.0476" height="65.0476" stroke="white" stroke-opacity="0.02" stroke-width="1.30095"/>
<rect x="780.571" y="298.309" width="65.0476" height="65.0476" stroke="white" stroke-opacity="0.02" stroke-width="1.30095"/>
<rect x="845.619" y="298.309" width="65.0476" height="65.0476" stroke="white" stroke-opacity="0.02" stroke-width="1.30095"/>
<rect x="910.667" y="298.309" width="65.0476" height="65.0476" stroke="white" stroke-opacity="0.02" stroke-width="1.30095"/>
<rect x="975.714" y="298.309" width="65.0476" height="65.0476" stroke="white" stroke-opacity="0.02" stroke-width="1.30095"/>
<rect x="1040.76" y="298.309" width="65.0476" height="65.0476" stroke="white" stroke-opacity="0.02" stroke-width="1.30095"/>
<rect x="1105.81" y="298.309" width="65.0476" height="65.0476" stroke="white" stroke-opacity="0.02" stroke-width="1.30095"/>
<rect x="1170.86" y="298.309" width="65.0476" height="65.0476" stroke="white" stroke-opacity="0.02" stroke-width="1.30095"/>
<rect x="1235.91" y="298.309" width="65.0476" height="65.0476" stroke="white" stroke-opacity="0.02" stroke-width="1.30095"/>
<rect x="1300.95" y="298.309" width="65.0476" height="65.0476" stroke="white" stroke-opacity="0.02" stroke-width="1.30095"/>
<g filter="url(#filter0_f_3133_6420)">
<rect x="-110.58" y="-1204.4" width="1649.61" height="1299.26" fill="url(#paint0_radial_3133_6420)"/>
</g>
<rect x="-293.365" y="-591.737" width="1877.27" height="1179.51" fill="url(#paint1_radial_3133_6420)" stroke="#14161B" stroke-width="1.30095"/>
</g>
<defs>
<filter id="filter0_f_3133_6420" x="-500.866" y="-1594.69" width="2430.18" height="2079.83" filterUnits="userSpaceOnUse" color-interpolation-filters="sRGB">
<feFlood flood-opacity="0" result="BackgroundImageFix"/>
<feBlend mode="normal" in="SourceGraphic" in2="BackgroundImageFix" result="shape"/>
<feGaussianBlur stdDeviation="195.143" result="effect1_foregroundBlur_3133_6420"/>
</filter>
<radialGradient id="paint0_radial_3133_6420" cx="0" cy="0" r="1" gradientUnits="userSpaceOnUse" gradientTransform="translate(714.223 -554.772) rotate(90) scale(649.628 824.804)">
<stop offset="0.015625" stop-color="#2266C1" stop-opacity="0.69"/>
<stop offset="0.223958" stop-color="#2266C1" stop-opacity="0.34"/>
<stop offset="0.911458" stop-color="#2DEBFC" stop-opacity="0"/>
</radialGradient>
<radialGradient id="paint1_radial_3133_6420" cx="0" cy="0" r="1" gradientUnits="userSpaceOnUse" gradientTransform="translate(645.272 -1.98322) rotate(90) scale(589.103 937.987)">
<stop stop-color="#14161B" stop-opacity="0"/>
<stop offset="0.833333" stop-color="#14161B"/>
</radialGradient>
<clipPath id="clip0_3133_6420">
<rect width="1366" height="320" fill="white"/>
</clipPath>
</defs>
</svg>
